<?xml version="1.0" encoding="UTF-8" standalone="no"?>
<svg
   xmlns:dc="http://purl.org/dc/elements/1.1/"
   xmlns:cc="http://creativecommons.org/ns#"
   xmlns:rdf="http://www.w3.org/1999/02/22-rdf-syntax-ns#"
   xmlns:svg="http://www.w3.org/2000/svg"
   xmlns="http://www.w3.org/2000/svg"
   xmlns:sodipodi="http://sodipodi.sourceforge.net/DTD/sodipodi-0.dtd"
   xmlns:inkscape="http://www.inkscape.org/namespaces/inkscape"
   version="1.1"
   id="svg869"
   width="6144"
   height="2816"
   viewBox="0 0 6144 2816"
   sodipodi:docname="6.svg"
   inkscape:version="1.0.2 (e86c8708, 2021-01-15)"
   inkscape:export-filename="/Users/evan/Software/pooltool/models/balls/set_1/1.png"
   inkscape:export-xdpi="150"
   inkscape:export-ydpi="150">
  <metadata
     id="metadata875">
    <rdf:RDF>
      <cc:Work
         rdf:about="">
        <dc:format>image/svg+xml</dc:format>
        <dc:type
           rdf:resource="http://purl.org/dc/dcmitype/StillImage" />
        <dc:title />
      </cc:Work>
    </rdf:RDF>
  </metadata>
  <defs
     id="defs873">
    <filter
       inkscape:collect="always"
       style="color-interpolation-filters:sRGB"
       id="filter1752"
       x="-0.050818402"
       width="1.1016368"
       y="-0.050818264"
       height="1.1016365">
      <feGaussianBlur
         inkscape:collect="always"
         stdDeviation="2.1776263"
         id="feGaussianBlur1754" />
    </filter>
    <filter
       inkscape:collect="always"
       style="color-interpolation-filters:sRGB"
       id="filter2034"
       x="-0.079403646"
       width="1.1588073"
       y="-0.079403646"
       height="1.1588073">
      <feGaussianBlur
         inkscape:collect="always"
         stdDeviation="2.3587746"
         id="feGaussianBlur2036" />
    </filter>
    <filter
       inkscape:collect="always"
       style="color-interpolation-filters:sRGB"
       id="filter5152"
       x="-0.14556983"
       width="1.2911397"
       y="-0.094757721"
       height="1.1895154">
      <feGaussianBlur
         inkscape:collect="always"
         stdDeviation="2.0088637"
         id="feGaussianBlur5154" />
    </filter>
    <filter
       inkscape:collect="always"
       style="color-interpolation-filters:sRGB"
       id="filter1055"
       x="-0.30141831"
       width="1.6028366"
       y="-0.46919738"
       height="1.9383948">
      <feGaussianBlur
         inkscape:collect="always"
         stdDeviation="1.3343035"
         id="feGaussianBlur1057" />
    </filter>
  </defs>
  <sodipodi:namedview
     pagecolor="#ffffff"
     bordercolor="#666666"
     borderopacity="1"
     objecttolerance="10"
     gridtolerance="10"
     guidetolerance="10"
     inkscape:pageopacity="0"
     inkscape:pageshadow="2"
     inkscape:window-width="1680"
     inkscape:window-height="1005"
     id="namedview871"
     showgrid="false"
     inkscape:zoom="8.4328943"
     inkscape:cx="1754.8637"
     inkscape:cy="483.69589"
     inkscape:window-x="0"
     inkscape:window-y="23"
     inkscape:window-maximized="1"
     inkscape:current-layer="g877"
     inkscape:document-rotation="0"
     inkscape:snap-global="false" />
  <g
     inkscape:groupmode="layer"
     inkscape:label="Image"
     id="g877">
    <rect
       style="fill:#3e855e;fill-opacity:1;stroke:none;stroke-width:2.89488;stroke-linecap:round;stroke-opacity:1"
       id="rect946"
       width="822.09351"
       height="409.48267"
       x="1344.9319"
       y="271.77701"
       inkscape:export-xdpi="150"
       inkscape:export-ydpi="150" />
    <circle
       style="fill:#faf7de;fill-opacity:1;stroke:none;stroke-width:0.269525;stroke-linecap:round;stroke-opacity:1"
       id="path936"
       sodipodi:type="arc"
       sodipodi:cx="1755.958"
       sodipodi:cy="477.37503"
       sodipodi:rx="51.228886"
       sodipodi:ry="51.228886"
       sodipodi:start="1.6186567"
       sodipodi:end="1.6151748"
       sodipodi:open="true"
       sodipodi:arc-type="arc"
       inkscape:export-xdpi="150"
       inkscape:export-ydpi="150"
       d="m 1753.5071,528.54525 a 51.228886,51.228886 0 0 1 -48.7214,-53.57657 51.228886,51.228886 0 0 1 53.5341,-48.76806 51.228886,51.228886 0 0 1 48.8147,53.49167 51.228886,51.228886 0 0 1 -53.4492,48.86119" />
    <text
       xml:space="preserve"
       style="font-weight:bold;font-size:40px;line-height:1.25;font-family:'ITF Devanagari Marathi';-inkscape-font-specification:'ITF Devanagari Marathi Bold'"
       x="1734.3552"
       y="500.76749"
       id="text856"
       inkscape:export-xdpi="150"
       inkscape:export-ydpi="150"><tspan
         sodipodi:role="line"
         id="tspan854"
         x="1734.3552"
         y="500.76749"
         style="font-style:normal;font-variant:normal;font-weight:600;font-stretch:normal;font-size:80px;font-family:'ITF Devanagari Marathi';-inkscape-font-specification:'ITF Devanagari Marathi Semi-Bold'">6</tspan></text>
    <path
       id="circle1531"
       style="fill:#000000;fill-opacity:1;stroke:none;stroke-width:3.93507;stroke-linecap:round"
       d="m 1755.7388,425.95386 a 51.420803,51.420803 0 0 0 -0.6035,0.006 51.420803,51.420803 0 0 0 -50.5957,51.96289 51.420803,51.420803 0 0 0 51.6933,50.87305 51.420803,51.420803 0 0 0 51.1465,-51.41992 l -0.012,-1.09766 A 51.420803,51.420803 0 0 0 1755.7385,425.954 Z m 0.062,6.27735 a 45.144543,45.144543 0 0 1 45.291,44.18164 l 0.01,0.96289 a 45.144543,45.144543 0 0 1 -44.9024,45.14258 45.144543,45.144543 0 0 1 -45.3828,-44.66211 45.144543,45.144543 0 0 1 44.42,-45.61914 45.144543,45.144543 0 0 1 0.5644,-0.006 z"
       inkscape:export-xdpi="150"
       inkscape:export-ydpi="150" />
    <path
       id="path1674"
       style="fill:#000000;fill-opacity:1;stroke:none;stroke-width:3.93507;stroke-linecap:round;filter:url(#filter1752)"
       d="m 1755.7388,425.95386 a 51.420803,51.420803 0 0 0 -0.6035,0.006 51.420803,51.420803 0 0 0 -50.5957,51.96289 51.420803,51.420803 0 0 0 51.6933,50.87305 51.420803,51.420803 0 0 0 51.1465,-51.41992 l -0.012,-1.09766 A 51.420803,51.420803 0 0 0 1755.7385,425.954 Z m 0.062,6.27735 a 45.144543,45.144543 0 0 1 45.291,44.18164 l 0.01,0.96289 a 45.144543,45.144543 0 0 1 -44.9024,45.14258 45.144543,45.144543 0 0 1 -45.3828,-44.66211 45.144543,45.144543 0 0 1 44.42,-45.61914 45.144543,45.144543 0 0 1 0.5644,-0.006 z"
       inkscape:export-xdpi="150"
       inkscape:export-ydpi="150" />
    <g
       id="g1894"
       transform="rotate(45,1756.0313,477.10296)"
       inkscape:export-xdpi="150"
       inkscape:export-ydpi="150">
      <path
         style="fill:#000000;fill-opacity:1;stroke:#000000;stroke-width:1px;stroke-linecap:butt;stroke-linejoin:miter;stroke-opacity:1"
         d="m 1711.247,471.98469 v 10.78067 l 6.3278,-5.39034 z"
         id="path1792"
         sodipodi:nodetypes="cccc" />
      <path
         style="fill:#000000;fill-opacity:1;stroke:#000000;stroke-width:1.03098px;stroke-linecap:butt;stroke-linejoin:miter;stroke-opacity:1"
         d="m 1800.8002,472.00669 v 10.62418 l -6.8251,-5.3121 z"
         id="path1794"
         sodipodi:nodetypes="cccc" />
      <path
         style="fill:#000000;fill-opacity:1;stroke:#000000;stroke-width:1px;stroke-linecap:butt;stroke-linejoin:miter;stroke-opacity:1"
         d="m 1761.3484,432.0756 h -10.7807 l 5.3903,6.3278 z"
         id="path1796"
         sodipodi:nodetypes="cccc" />
      <path
         style="fill:#000000;fill-opacity:1;stroke:#000000;stroke-width:1.00738px;stroke-linecap:butt;stroke-linejoin:miter;stroke-opacity:1"
         d="m 1761.3426,522.12663 h -10.7691 l 5.3845,-6.4285 z"
         id="path1888"
         sodipodi:nodetypes="cccc" />
    </g>
    <g
       id="g1964"
       transform="rotate(45,1756.0313,477.10296)"
       style="filter:url(#filter2034)"
       inkscape:export-xdpi="150"
       inkscape:export-ydpi="150">
      <path
         style="fill:#000000;fill-opacity:1;stroke:#000000;stroke-width:1px;stroke-linecap:butt;stroke-linejoin:miter;stroke-opacity:1"
         d="m 1711.247,471.98469 v 10.78067 l 6.3278,-5.39034 z"
         id="path1956"
         sodipodi:nodetypes="cccc" />
      <path
         style="fill:#000000;fill-opacity:1;stroke:#000000;stroke-width:1.03098px;stroke-linecap:butt;stroke-linejoin:miter;stroke-opacity:1"
         d="m 1800.8002,472.00669 v 10.62418 l -6.8251,-5.3121 z"
         id="path1958"
         sodipodi:nodetypes="cccc" />
      <path
         style="fill:#000000;fill-opacity:1;stroke:#000000;stroke-width:1px;stroke-linecap:butt;stroke-linejoin:miter;stroke-opacity:1"
         d="m 1761.3484,432.0756 h -10.7807 l 5.3903,6.3278 z"
         id="path1960"
         sodipodi:nodetypes="cccc" />
      <path
         style="fill:#000000;fill-opacity:1;stroke:#000000;stroke-width:1.00738px;stroke-linecap:butt;stroke-linejoin:miter;stroke-opacity:1"
         d="m 1761.3426,522.12663 h -10.7691 l 5.3845,-6.4285 z"
         id="path1962"
         sodipodi:nodetypes="cccc" />
    </g>
    <text
       xml:space="preserve"
       style="font-weight:bold;font-size:40px;line-height:1.25;font-family:'ITF Devanagari Marathi';-inkscape-font-specification:'ITF Devanagari Marathi Bold';filter:url(#filter5152)"
       x="1734.3552"
       y="500.76749"
       id="text5088"
       inkscape:export-xdpi="150"
       inkscape:export-ydpi="150"><tspan
         sodipodi:role="line"
         id="tspan5086"
         x="1734.3552"
         y="500.76749"
         style="font-style:normal;font-variant:normal;font-weight:600;font-stretch:normal;font-size:80px;font-family:'ITF Devanagari Marathi';-inkscape-font-specification:'ITF Devanagari Marathi Semi-Bold'">6</tspan></text>
    <path
       style="fill:#000000;fill-opacity:1;stroke:#000000;stroke-width:1.03098px;stroke-linecap:butt;stroke-linejoin:miter;stroke-opacity:1"
       d="m 1750.5904,503.21516 10.6242,5e-5 -5.3121,6.82507 z"
       id="path1794-3"
       sodipodi:nodetypes="cccc"
       inkscape:export-xdpi="150"
       inkscape:export-ydpi="150" />
    <path
       style="fill:#000000;fill-opacity:1;stroke:#000000;stroke-width:1.03098000000000001px;stroke-linecap:butt;stroke-linejoin:miter;stroke-opacity:1;filter:url(#filter1055)"
       d="m 1750.5904,503.21516 10.6242,5e-5 -5.3121,6.82507 z"
       id="path973"
       sodipodi:nodetypes="cccc"
       inkscape:export-xdpi="150"
       inkscape:export-ydpi="150" />
  </g>
</svg>
